<svg width="103" height="134" viewBox="0 0 103 134" fill="none" xmlns="http://www.w3.org/2000/svg">
<g opacity="0.1">
<path d="M109.865 6.81478C96.7236 -0.866194 81.0738 -1.90538 66.6954 2.9467C61.7903 4.60206 57.11 6.93424 52.8639 9.89893C48.4654 12.97 45.1655 17.1609 41.2572 20.7839C37.3041 24.4483 33.2113 28.0142 28.5654 30.7836C22.0141 34.6891 14.3847 37.0238 8.91967 42.3439C2.90604 48.1981 0.431892 56.8845 0.0546334 65.2688C-0.26344 72.3372 0.777925 79.5767 3.95358 85.8993C7.27447 92.5106 12.7732 97.8271 18.8784 102.006C26.7913 107.423 35.8757 111.119 45.3224 112.766C64.084 116.038 83.6369 111.121 100.3 101.898C110.177 96.4324 119.321 89.3734 126.08 80.3319C132.838 71.2904 137.092 60.152 136.784 48.8677C136.309 31.4931 124.871 15.5861 109.865 6.81478Z" fill="#ECDEFF"/>
<path d="M40.0962 17.2217C41.3231 15.5014 42.4622 13.6209 42.7149 11.5229C42.9672 9.42458 42.115 7.06481 40.2222 6.12475C38.3374 5.18832 35.9525 5.92323 34.4297 7.37598C32.9065 8.82874 32.0805 10.8548 31.4265 12.8551C30.1698 16.6992 29.2421 20.941 26.2408 23.6522C25.5472 24.2789 24.7517 24.8116 24.2031 25.5683C22.9068 27.3562 24.2205 29.225 26.2571 29.4375C28.0345 29.623 29.5475 27.9411 30.8154 26.9281C34.3346 24.1163 37.4775 20.8938 40.0962 17.2217Z" fill="#ECDEFF"/>
<path d="M101.865 17.5777C102.394 17.5814 102.94 17.5821 103.427 17.3751C104.273 17.0156 104.757 16.1014 104.938 15.2009C105.135 14.2249 105.038 13.1592 104.502 12.3201C103.966 11.4809 102.946 10.9236 101.965 11.0939C100.984 11.2642 100.173 12.2627 100.355 13.2416C99.9803 12.5005 98.7214 12.4856 98.3293 13.2173C98.2091 12.0441 96.6627 11.3829 95.6173 11.9279C94.5716 12.4733 94.1595 13.864 94.5026 14.9921C93.719 14.4224 92.4101 14.9801 92.2783 15.9398C91.9526 15.6413 91.6824 15.2615 91.279 15.0818C90.8756 14.9021 90.2747 15.0622 90.2191 15.5001C89.7878 15.1025 89.1335 14.9645 88.5783 15.1548C88.0231 15.3447 87.5907 15.8548 87.4937 16.4336C87.2624 17.813 88.3205 17.6119 89.1553 17.4953C90.5064 17.3068 92.0252 17.5069 93.3904 17.5167C96.215 17.5374 99.0402 17.5574 101.865 17.5777Z" fill="white"/>
<path d="M14.4037 36.9452C14.9328 36.9488 15.4792 36.9495 15.9658 36.7425C16.8114 36.3831 17.2958 35.4688 17.477 34.5683C17.6734 33.5923 17.5761 32.5266 17.0405 31.6875C16.505 30.8484 15.4847 30.291 14.5039 30.4613C13.5232 30.6316 12.712 31.6301 12.8936 32.609C12.5189 31.868 11.26 31.8531 10.8679 32.5847C10.7477 31.4115 9.20125 30.7503 8.1559 31.2954C7.11017 31.8407 6.69806 33.2314 7.04118 34.3595C6.25762 33.7898 4.94865 34.3476 4.81685 35.3072C4.49115 35.0088 4.221 34.6289 3.8176 34.4492C3.4142 34.2695 2.81327 34.4296 2.75772 34.8675C2.32636 34.4699 1.67206 34.3319 1.11688 34.5222C0.561703 34.7121 0.129253 35.2223 0.0323064 35.801C-0.198987 37.1804 0.859082 36.9793 1.69348 36.8627C3.04457 36.6743 4.5634 36.8743 5.92865 36.8842C8.75355 36.9048 11.5785 36.9248 14.4037 36.9452Z" fill="#ECDEFF"/>
<path d="M14.8342 54.2515C14.2355 54.2558 13.6175 54.2562 13.0667 54.022C12.1099 53.6153 11.5616 52.5809 11.3565 51.5616C11.1343 50.4575 11.2443 49.2512 11.8503 48.3017C12.4563 47.3522 13.611 46.7215 14.721 46.914C15.8309 47.1064 16.7485 48.2368 16.543 49.3446C16.9671 48.5058 18.3915 48.4891 18.8352 49.3173C18.9714 47.9898 20.7211 47.2415 21.9041 47.8584C23.0875 48.4753 23.5537 50.0493 23.1655 51.326C24.0522 50.6815 25.5333 51.3126 25.6825 52.3986C26.0507 52.0609 26.3568 51.6314 26.8132 51.4277C27.2696 51.224 27.9497 51.4055 28.0125 51.9011C28.5005 51.4509 29.2409 51.2951 29.869 51.5101C30.4972 51.725 30.9866 52.302 31.0963 52.957C31.3577 54.518 30.1606 54.2903 29.2165 54.1585C27.6879 53.945 25.969 54.1716 24.4244 54.1828C21.2277 54.2057 18.031 54.2286 14.8342 54.2515Z" fill="white"/>
</g>
<path d="M49.457 85.1398C37.0492 85.1398 30.9372 73.8805 30.6834 73.4012C30.1068 72.3134 30.5211 70.9641 31.6086 70.3878C32.6957 69.812 34.0417 70.2241 34.6198 71.3087C34.834 71.707 39.7765 80.682 49.457 80.682C50.6879 80.682 51.6861 81.6798 51.6861 82.9111C51.6861 84.1416 50.6879 85.1398 49.457 85.1398Z" fill="#DDA38C"/>
<path d="M57.4487 114.536C57.4487 114.536 57.944 119.233 66.9445 119.233C75.9446 119.233 77.1192 114.536 77.1192 114.536H57.4487Z" stroke="#244E80" stroke-width="0.343641" stroke-miterlimit="10"/>
<path d="M75.6773 116.15H58.2134C56.2342 116.15 54.6147 114.531 54.6147 112.552V103.896C54.6147 101.916 56.2342 100.297 58.2134 100.297H75.6773C77.6566 100.297 79.276 101.916 79.276 103.896V112.552C79.276 114.531 77.6566 116.15 75.6773 116.15Z" fill="white" stroke="#244E80" stroke-width="0.343641" stroke-miterlimit="10"/>
<path d="M78.5049 101.681L54.6152 105.617V106.854L79.1102 102.819C78.978 102.402 78.77 102.018 78.5049 101.681Z" fill="#DEEEFC"/>
<path d="M79.2765 104.229L54.6152 108.292V109.529L79.2765 105.466V104.229Z" fill="#DEEEFC"/>
<path d="M54.6152 112.202L79.2765 108.139V106.902L54.6152 110.965V112.202Z" fill="#DEEEFC"/>
<path d="M55.3756 114.752L79.2772 110.814V109.577L54.7769 113.614C54.9065 114.031 55.1131 114.414 55.3756 114.752Z" fill="#DEEEFC"/>
<path d="M58.2126 116.151H63.1094L79.1409 113.51C79.2258 113.204 79.2749 112.884 79.2749 112.552V112.251L56.9727 115.925C57.3604 116.069 57.7769 116.151 58.2126 116.151Z" fill="#DEEEFC"/>
<path d="M78.5049 101.681L54.6152 105.617V106.854L79.1102 102.819C78.978 102.402 78.77 102.018 78.5049 101.681Z" stroke="#244E80" stroke-width="0.343641" stroke-miterlimit="10"/>
<path d="M79.2765 104.229L54.6152 108.292V109.529L79.2765 105.466V104.229Z" stroke="#244E80" stroke-width="0.343641" stroke-miterlimit="10"/>
<path d="M54.6152 112.202L79.2765 108.139V106.902L54.6152 110.965V112.202Z" stroke="#244E80" stroke-width="0.343641" stroke-miterlimit="10"/>
<path d="M55.3756 114.752L79.2772 110.814V109.577L54.7769 113.614C54.9065 114.031 55.1131 114.414 55.3756 114.752Z" stroke="#244E80" stroke-width="0.343641" stroke-miterlimit="10"/>
<path d="M58.2126 116.151H63.1094L79.1409 113.51C79.2258 113.204 79.2749 112.884 79.2749 112.552V112.251L56.9727 115.925C57.3604 116.069 57.7769 116.151 58.2126 116.151Z" stroke="#244E80" stroke-width="0.343641" stroke-miterlimit="10"/>
<path d="M75.6773 116.15H58.2134C56.2342 116.15 54.6147 114.531 54.6147 112.552V103.896C54.6147 101.916 56.2342 100.297 58.2134 100.297H75.6773C77.6566 100.297 79.276 101.916 79.276 103.896V112.552C79.276 114.531 77.6566 116.15 75.6773 116.15Z" stroke="#244E80" stroke-width="0.343641" stroke-miterlimit="10"/>
<path d="M98.7485 52.2311C98.0456 42.312 91.9212 22.9636 68.0867 21.8016V21.7461C67.7018 21.7461 67.322 21.7512 66.9455 21.7603C66.5693 21.7512 66.1892 21.7461 65.8043 21.7461V21.8016C41.9698 22.9636 35.8454 42.3116 35.1425 52.2311C34.4177 62.4599 39.7335 70.4335 44.1633 78.4072C48.5931 86.3808 50.2038 97.0526 50.8886 100.919C51.5734 104.784 55.0769 104.664 55.0769 104.664H65.8046H66.9459L68.0871 104.664L78.8148 104.664C78.8148 104.664 82.3183 104.785 83.0028 100.919C83.6872 97.0526 85.2983 86.3808 89.7281 78.4072C94.1579 70.4335 99.4736 62.4599 98.7485 52.2311Z" fill="#FBB040"/>
<path d="M72.9135 24.5138C72.1485 24.939 71.5857 25.5817 71.7484 26.3957C71.8402 26.8561 72.1285 27.253 72.4473 27.5976C73.5464 28.786 75.0576 29.5148 76.5972 30.0155C77.1774 30.2043 77.7798 30.3658 78.3891 30.3335C78.9983 30.3012 79.6225 30.0467 79.9725 29.5467C80.3639 28.9879 80.3461 28.2348 80.1737 27.5747C79.9097 26.5642 79.2311 25.9633 78.3963 25.3823C77.4544 24.7269 76.4566 24.0505 75.3147 23.9397C74.6666 23.8769 73.6866 24.0843 72.9135 24.5138Z" fill="#FCBC68"/>
<path d="M52.0465 81.1702C44.8666 69.2958 44.2167 59.4773 44.2167 59.4773C42.672 39.9597 51.3918 28.6299 57.9436 22.967C40.5755 27.4898 35.7608 43.5064 35.1425 52.2309C34.4177 62.4598 39.7335 70.4334 44.1633 78.407C48.5931 86.3806 50.2038 97.0525 50.8886 100.918C51.5734 104.784 55.0769 104.664 55.0769 104.664H55.1357C55.5061 95.2863 54.9535 85.9776 52.0465 81.1702Z" fill="#FCBC68"/>
<path d="M47.8679 69.3499L40.5649 71.9896C41.2715 73.2931 42.0021 74.5814 42.7297 75.8631C46.421 73.0291 47.8679 69.3499 47.8679 69.3499Z" fill="#E29A3B"/>
<path d="M118.243 44.6467H71.811V91.079H118.243V44.6467Z" fill="white"/>
<path d="M98.7478 52.2304C98.5939 50.058 98.1799 47.4335 97.3768 44.6467H71.811V91.079H84.9918C86.0329 86.9618 87.5343 82.3537 89.7274 78.4061C94.1572 70.4328 99.4729 62.4592 98.7478 52.2304Z" fill="#DEEEFC"/>
<path d="M97.3787 44.6467C97.3787 44.6467 102.617 56.8806 93.1508 72.3137C93.1508 72.3137 89.0333 79.7187 86.6753 85.399" stroke="#244E80" stroke-width="0.343641" stroke-miterlimit="10" stroke-linejoin="round"/>
<path d="M100.633 55.209L88.959 83.3611" stroke="#244E80" stroke-width="0.343641" stroke-miterlimit="10" stroke-linecap="round" stroke-linejoin="round"/>
<path d="M101.629 54.7975C101.468 55.186 101.023 55.3704 100.634 55.2092C100.246 55.048 100.061 54.6025 100.222 54.214C100.384 53.8255 100.829 53.641 101.218 53.8022C101.606 53.9634 101.791 54.4093 101.629 54.7975Z" fill="white" stroke="#244E80" stroke-width="0.343641" stroke-miterlimit="10" stroke-linecap="round" stroke-linejoin="round"/>
<path d="M89.3721 84.3558C89.2109 84.7443 88.7653 84.9288 88.3768 84.7676C87.9883 84.6064 87.8039 84.1608 87.9651 83.7723C88.1263 83.3838 88.5718 83.1994 88.9603 83.3606C89.3488 83.5218 89.5333 83.9673 89.3721 84.3558Z" fill="white" stroke="#244E80" stroke-width="0.343641" stroke-miterlimit="10" stroke-linecap="round" stroke-linejoin="round"/>
<path d="M96.0184 68.8814L94.3882 68.0352L93.5419 69.6654L95.1722 70.5117L96.0184 68.8814Z" fill="white" stroke="#244E80" stroke-width="0.343641" stroke-miterlimit="10" stroke-linejoin="round"/>
<path d="M96.5623 69.5371C96.3949 69.4746 96.2638 69.6888 96.3964 69.8094L99.2899 72.4415C99.4075 72.5486 99.4162 72.7309 99.3091 72.8489C99.202 72.9665 99.0197 72.9752 98.9017 72.8681L96.0086 70.2364C95.8764 70.1162 95.6752 70.2665 95.7533 70.4274L97.8175 74.6767C97.8386 74.7199 97.8778 74.7519 97.9243 74.7631L100.669 75.4472C100.727 75.4617 100.788 75.4432 100.829 75.3989L101.373 74.8009L101.447 74.7188L101.991 74.1208C102.032 74.0765 102.044 74.0141 102.024 73.9574L101.084 71.2894C101.068 71.244 101.033 71.208 100.988 71.1913L96.5623 69.5371Z" fill="#244E80"/>
<path d="M102.493 74.2221L100.967 75.8999L101.741 76.6043L103.267 74.9265L102.493 74.2221Z" fill="#244E80"/>
<path d="M116.719 91.0791H72.8291" stroke="#244E80" stroke-width="0.343641" stroke-miterlimit="10" stroke-dasharray="0.95 0.95"/>
<path d="M72.3259 91.0791H71.811V90.5642" stroke="#244E80" stroke-width="0.343641" stroke-miterlimit="10"/>
<path d="M71.811 89.5558V45.666" stroke="#244E80" stroke-width="0.343641" stroke-miterlimit="10" stroke-dasharray="0.95 0.95"/>
<path d="M71.811 45.1614V44.6465H72.3259" stroke="#244E80" stroke-width="0.343641" stroke-miterlimit="10"/>
<path d="M73.3345 44.6465H117.224" stroke="#244E80" stroke-width="0.343641" stroke-miterlimit="10" stroke-dasharray="0.95 0.95"/>
<path d="M60.8459 104.591C61.3165 97.6234 61.5652 93.9397 61.9334 88.4904C62.4987 80.1184 62.8219 70.9012 57.6677 64.2797C57.3533 63.876 56.984 63.4628 56.4844 63.3538C55.459 63.1298 54.6754 64.2521 54.3142 65.2376C53.5546 67.3094 53.2793 69.7396 54.4013 71.6397C55.3472 73.2417 57.1151 74.1789 58.8866 74.7475C63.0586 76.0866 67.7386 75.7663 71.6891 73.871" stroke="#244E80" stroke-width="0.343641" stroke-miterlimit="10" stroke-linejoin="round"/>
<path d="M82.5236 21.7458H52.0474" stroke="#244E80" stroke-width="0.343641" stroke-miterlimit="10" stroke-linecap="round" stroke-linejoin="round"/>
<path d="M83.2863 22.5072C82.8658 22.5072 82.5249 22.1663 82.5249 21.7458C82.5249 21.3253 82.8658 20.9844 83.2863 20.9844C83.7068 20.9844 84.0477 21.3253 84.0477 21.7458C84.0477 22.1663 83.7068 22.5072 83.2863 22.5072Z" fill="white" stroke="#244E80" stroke-width="0.343641" stroke-miterlimit="10" stroke-linecap="round" stroke-linejoin="round"/>
<path d="M51.2853 22.5072C50.8649 22.5072 50.5239 22.1663 50.5239 21.7458C50.5239 21.3253 50.8649 20.9844 51.2853 20.9844C51.7058 20.9844 52.0468 21.3253 52.0468 21.7458C52.0468 22.1663 51.7058 22.5072 51.2853 22.5072Z" fill="white" stroke="#244E80" stroke-width="0.343641" stroke-miterlimit="10" stroke-linecap="round" stroke-linejoin="round"/>
<path d="M43.7729 31.334C43.7729 31.334 50.8109 22.3241 65.8025 21.7449C65.8025 21.7449 80.1161 21.0184 89.8926 31.0958" stroke="#244E80" stroke-width="0.343641" stroke-miterlimit="10" stroke-linecap="round" stroke-linejoin="round"/>
<path d="M43.0664 122.032L43.5007 123.041C43.5007 123.041 47.2177 123.251 50.6998 120.102L49.2264 119.994L43.0664 122.032Z" fill="#171C27"/>
<path d="M26.8111 92.6963C26.8111 92.6963 24.6002 108.45 19.2612 119.843C19.2612 119.843 22.3646 121.683 25.3733 121.508C25.3733 121.508 31.1865 108.976 33.2899 93.4642L26.8111 92.6963Z" fill="#062538"/>
<path d="M23.8313 87.1609C23.8313 87.1609 23.6556 92.3506 25.9144 93.7852C28.1732 95.2198 40.325 113.304 43.11 121.983C43.11 121.983 46.7388 122.224 49.2703 119.946C49.2703 119.946 41.5066 102.155 35.0932 92.6963C35.0932 92.6963 36.6559 89.6434 36.4744 86.6609L23.8313 87.1609Z" fill="#0A3759"/>
<path d="M19.2621 119.842L18.7759 120.661C18.7759 120.661 22.0463 122.811 26.1341 122.478L25.3745 121.507C25.3745 121.507 20.566 120.385 19.2621 119.842Z" fill="#171C27"/>
<path d="M35.6532 73.1498L36.4745 86.6599C36.4745 86.6599 33.6841 88.7223 29.3549 88.8182C25.0257 88.9137 23.8314 87.1607 23.8314 87.1607C23.8314 87.1607 22.748 73.9432 22.854 73.7961C22.96 73.6491 22.866 69.2694 29.1526 69.2948C35.439 69.3191 35.6532 73.1498 35.6532 73.1498Z" fill="#2481D3"/>
<path d="M35.599 72.8237C31.6641 73.1066 25.7735 73.6055 24.7188 74.1185C24.7188 74.1185 29.8609 77.9133 35.9254 77.6159L35.6538 73.1498C35.6538 73.1498 35.6462 73.0256 35.599 72.8237Z" fill="#1364A0"/>
<path d="M27.2095 65.7385L27.724 69.4472L29.6488 70.7663L31.168 69.5245L30.8586 67.294L27.2095 65.7385Z" fill="#EEB399"/>
<path d="M27.9302 67.5444L30.9693 68.104L31.1342 69.2913C29.4824 69.2997 27.9302 67.5444 27.9302 67.5444Z" fill="#CC957F"/>
<path d="M30.2961 68.7569L31.3549 68.6099C32.7949 68.4102 33.8098 67.0685 33.6101 65.6281L33.0879 61.8635C32.8882 60.4235 31.5466 59.4086 30.1062 59.6083L29.0474 59.7554C27.6073 59.9551 26.5925 61.2967 26.7922 62.7368L27.3143 66.5014C27.5144 67.9418 28.856 68.9567 30.2961 68.7569Z" fill="#EEB399"/>
<path d="M27.7598 62.3893C28.0953 62.5139 28.5023 62.4866 28.7739 62.2543C29.0458 62.0219 29.1232 61.5665 28.889 61.2957C29.1929 61.4031 29.5237 61.4794 29.8363 61.4006C30.1489 61.3218 30.4314 61.0466 30.4231 60.7245C30.5992 60.8443 30.7836 60.9674 30.9946 60.9961C31.2056 61.0248 31.4499 60.9264 31.516 60.7242C31.7488 60.9032 32.0403 61.0045 32.3337 61.0085C32.5044 61.0106 32.683 60.9772 32.8152 60.869C32.943 60.7641 33.0112 60.6022 33.0436 60.4399C33.142 59.9453 32.9219 59.4021 32.5073 59.116C32.4031 59.0437 32.2832 58.986 32.1561 58.9846C32.0294 58.9831 31.8958 59.0499 31.8482 59.1672C31.5861 58.7391 31.1366 58.4138 30.6369 58.3662C30.1373 58.3183 29.605 58.5808 29.3941 59.0361C29.2928 58.8546 29.08 58.7558 28.8719 58.7449C28.6642 58.7344 28.4598 58.7994 28.2681 58.8796C28.0143 58.9853 27.767 59.1225 27.5822 59.3262C27.3977 59.5303 27.2823 59.8095 27.3244 60.0815C27.1163 60.0052 26.8905 60.1265 26.7155 60.2623C26.4613 60.4598 26.2311 60.7143 26.1578 61.0277C26.0844 61.3411 26.2126 61.7172 26.5078 61.8454C26.2228 62.0451 26.0514 62.3973 26.0703 62.7452C26.0891 63.093 26.2976 63.4245 26.6026 63.5923C26.1919 63.8148 26.0979 64.4564 26.4275 64.7876C26.2271 64.8758 26.1342 65.1314 26.1915 65.3428C26.2489 65.5541 26.4286 65.7171 26.6312 65.8003C26.8262 65.8805 27.0622 65.8929 27.2398 65.7788C27.417 65.6652 27.4943 65.4201 27.3876 65.2342C27.405 65.2647 27.7721 64.8352 27.7906 64.768C27.8444 64.5712 27.8226 64.3054 27.8396 64.0973C27.8872 63.5273 27.8603 62.9518 27.7598 62.3893Z" fill="#171C27"/>
<path d="M26.4142 65.4138C26.4734 65.8401 26.8667 66.1374 27.2929 66.0783C27.7192 66.0191 28.0166 65.6258 27.9574 65.1996C27.8982 64.7733 27.505 64.4759 27.0787 64.5351C26.6524 64.5943 26.3551 64.9875 26.4142 65.4138Z" fill="#EEB399"/>
<path d="M28.3176 65.8283C28.4984 66.053 28.713 66.2476 28.9276 66.4404C29.1516 66.642 29.3894 66.8497 29.6828 66.9183C30.0942 67.0149 30.5194 66.8155 30.856 66.5599C31.1926 66.3043 31.4856 65.9866 31.8578 65.7858C32.3523 65.5193 32.9492 65.4866 33.4982 65.606C33.638 65.6365 33.7818 65.6798 33.8842 65.7796C33.9993 65.8922 34.0433 66.057 34.0763 66.2146C34.1761 66.6914 34.2212 67.1794 34.2103 67.6659C34.203 67.9872 34.1692 68.3177 34.0207 68.6027C33.8236 68.981 33.4398 69.2385 33.0302 69.3587C32.6206 69.4789 32.1849 69.4752 31.7601 69.4346C30.5964 69.3238 29.4014 68.9019 28.6647 67.9941C28.3796 67.643 28.1749 67.2342 27.9868 66.8224C27.7123 66.2211 27.4679 65.606 27.2559 64.9801C27.1669 64.7179 27.0623 64.3726 27.2087 64.1105C27.3662 63.828 27.5964 63.8512 27.6967 64.1388C27.7947 64.4202 27.7729 64.7412 27.8757 65.0305C27.9773 65.3196 28.1262 65.5904 28.3176 65.8283Z" fill="#171C27"/>
<path d="M44.3087 66.6851C36.4346 73.9158 27.5942 70.482 27.2003 70.3237C26.0634 69.8603 24.7653 70.3999 24.2958 71.5346C23.8253 72.6722 24.3659 73.9757 25.5039 74.4466C25.7432 74.5454 28.7071 75.7331 32.8679 75.7331C37.0057 75.7331 42.3269 74.5577 47.3239 69.9689C46.6732 67.7932 44.3087 66.6851 44.3087 66.6851Z" fill="#EEB399"/>
<path d="M31.3105 71.0963C28.9322 70.8635 27.3408 70.2463 27.1745 70.1795C25.9737 69.69 24.6027 70.2601 24.1067 71.4586C23.6096 72.6605 24.1807 74.0374 25.3826 74.5344C25.5859 74.6183 27.6541 75.4458 30.7434 75.7664C31.4184 74.1438 31.3588 71.8976 31.3105 71.0963Z" fill="#2481D3"/>
<path d="M31.2209 71.0883C31.2209 71.0883 29.0594 70.9067 27.1753 70.1802" stroke="#1364A0" stroke-width="0.0974223" stroke-miterlimit="10" stroke-linecap="round" stroke-linejoin="round"/>
<path d="M46.0769 65.1188C46.2283 65.0062 46.3917 64.8936 46.5794 64.8733C46.7671 64.853 46.9821 64.9601 47.0159 65.1456C47.0674 65.4307 46.7058 65.6104 46.6034 65.8816C46.5268 66.085 46.6103 66.3177 46.745 66.4884C46.8797 66.6587 47.0609 66.7857 47.2185 66.935C47.9744 67.6525 48.0906 68.9447 47.4748 69.7853C47.3586 69.9436 47.2065 70.0939 47.013 70.1262C46.7682 70.1665 46.5391 70.0101 46.3405 69.8615C45.8075 69.4625 45.269 69.0587 44.8394 68.55C44.4524 68.0918 43.8722 67.273 44.2955 66.716C44.7567 66.1093 45.4694 65.5697 46.0769 65.1188Z" fill="#EEB399"/>
<path d="M103.217 25.6102L100.444 27.4961L104.756 28.6395V32.2843L106.861 29.7175L111.636 30.9314L116.359 20.4763L103.217 25.6102Z" fill="#A7A9AC"/>
<path d="M116.64 18.4568L100.251 25.7743L105.031 27.8109L116.64 18.4568Z" fill="white"/>
<path d="M102.774 33.2782C101.897 34.0617 100.841 34.6456 99.7069 34.9597C98.5079 35.2919 97.1641 35.3108 96.0785 34.7026C94.9932 34.0944 94.2753 32.7491 94.6537 31.564C95.032 30.3788 96.6852 29.7242 97.6409 30.5204C98.4008 31.1537 98.4342 32.373 97.9557 33.239C97.4775 34.1049 96.6144 34.6841 95.748 35.1619C93.2703 36.5286 90.4432 37.3478 87.6179 37.1855C85.135 37.0428 82.6631 36.0947 80.8545 34.4052" stroke="#244E80" stroke-width="0.292232" stroke-linecap="round" stroke-linejoin="round" stroke-dasharray="0.97 0.97"/>
<path d="M80.4901 34.0457C80.3717 33.9219 80.2566 33.7948 80.1455 33.6641" stroke="#244E80" stroke-width="0.292232" stroke-linecap="round" stroke-linejoin="round"/>
<path d="M48.5599 52.9084C48.5599 49.7033 45.9616 47.105 42.7565 47.105C39.5515 47.105 36.9531 49.7033 36.9531 52.9084C36.9531 55.3898 38.5137 57.5016 40.7047 58.3316L39.9429 60.3824L42.9079 58.7041C46.0426 58.6232 48.5599 56.0622 48.5599 52.9084Z" fill="white"/>
<path d="M43.8008 51.3552L40.9414 52.7884L42.636 53.0324L43.2899 54.4183L43.8008 51.3552Z" fill="#244E80"/>
<path d="M45.3343 55.3282H40.1758V50.1697H45.3343V55.3282ZM40.321 55.183H45.1894V50.3146H40.321V55.183Z" fill="#244E80"/>
<path d="M45.2618 50.5782C45.4479 50.5782 45.5987 50.4273 45.5987 50.2412C45.5987 50.0552 45.4479 49.9043 45.2618 49.9043C45.0757 49.9043 44.9248 50.0552 44.9248 50.2412C44.9248 50.4273 45.0757 50.5782 45.2618 50.5782Z" fill="#244E80"/>
<path d="M40.2491 50.5782C40.4352 50.5782 40.586 50.4273 40.586 50.2412C40.586 50.0552 40.4352 49.9043 40.2491 49.9043C40.063 49.9043 39.9121 50.0552 39.9121 50.2412C39.9121 50.4273 40.063 50.5782 40.2491 50.5782Z" fill="#244E80"/>
<path d="M40.2491 55.5921C40.4352 55.5921 40.586 55.4413 40.586 55.2552C40.586 55.0691 40.4352 54.9182 40.2491 54.9182C40.063 54.9182 39.9121 55.0691 39.9121 55.2552C39.9121 55.4413 40.063 55.5921 40.2491 55.5921Z" fill="#244E80"/>
<path d="M45.2618 55.5921C45.4479 55.5921 45.5987 55.4413 45.5987 55.2552C45.5987 55.0691 45.4479 54.9182 45.2618 54.9182C45.0757 54.9182 44.9248 55.0691 44.9248 55.2552C44.9248 55.4413 45.0757 55.5921 45.2618 55.5921Z" fill="#244E80"/>
<path d="M59.2304 123.987C59.2304 123.987 55.5381 124.011 55.6772 120.598C55.6772 120.598 55.5465 117.348 59.4944 117.509C59.4944 117.509 60.1876 122.151 59.2304 123.987Z" fill="#FF5252"/>
<path d="M63.2786 117.663L59.4947 117.509C59.4947 117.509 57.1596 120.645 59.2307 123.987L63.1032 124.145L63.2786 117.663Z" fill="#674A6C"/>
<path d="M115.652 119.795L63.2786 117.662C63.2786 117.662 60.7191 121.023 63.0146 124.14L115.388 126.273L121.709 123.286L115.652 119.795Z" fill="#FBB040"/>
<path d="M62.4627 119.204L116.437 121.402L116.342 123.725L62.064 121.514C62.0233 120.647 62.2179 119.848 62.4627 119.204Z" fill="#EFA33F"/>
<path d="M63.0147 124.142C62.364 123.258 62.104 122.355 62.0645 121.514L116.343 123.725C117.608 122.962 119.71 123.218 121.175 123.54L115.388 126.275L63.0147 124.142Z" fill="#DB9037"/>
<path d="M59.941 117.729C59.941 117.729 58.0515 120.427 59.6302 123.77C59.6302 123.77 58.3568 120.68 59.941 117.729Z" fill="#36253A"/>
<path d="M60.6871 117.76C60.6871 117.76 58.7976 120.458 60.3763 123.801C60.3763 123.801 59.1026 120.711 60.6871 117.76Z" fill="#36253A"/>
<path d="M61.4303 117.79C61.4303 117.79 59.5407 120.488 61.1195 123.831C61.1195 123.831 59.8457 120.741 61.4303 117.79Z" fill="#36253A"/>
<path d="M62.1764 117.819C62.1764 117.819 60.2868 120.518 61.8656 123.86C61.8656 123.86 60.5922 120.771 62.1764 117.819Z" fill="#36253A"/>
<path d="M102.431 122.34L104.237 119.331L78.7787 118.294L78.001 124.752L100.054 125.65C101.291 123.875 102.431 122.34 102.431 122.34Z" fill="#D1D3D4"/>
<path d="M83.9409 132.38V133.482C83.9409 133.482 79.5518 134.336 75.5806 133.482L77.3895 132.38H83.9409Z" fill="#171C27"/>
<path d="M99.4825 114.869L99.668 125.127L111.798 125.802C111.798 125.802 112.591 129.612 111.798 131.305H99.668C99.668 131.305 93.4409 132.42 93.0963 126.444C92.7521 120.467 92.7227 116.495 92.7227 116.495C92.7227 116.495 96.9546 114.358 99.4825 114.869Z" fill="#A05E47"/>
<path d="M99.6663 125.03L99.5512 118.672L92.7769 119.102C92.8186 120.577 92.892 122.617 93.0205 125.062C94.4529 125.356 96.9198 125.644 99.6663 125.03Z" fill="#82493A"/>
<path d="M99.6758 113.36C99.6758 113.36 101.094 117.903 98.4507 118.866C95.807 119.828 83.3912 118.866 83.3912 118.866L83.941 132.381C83.941 132.381 80.4131 133.481 77.3892 132.381L76.9767 116.483C76.9767 116.483 75.9997 111.933 84.8571 112.678L99.6758 113.36Z" fill="#A05E47"/>
<path d="M80.943 113.139C80.943 113.139 80.5414 117.628 83.513 121.888L83.3899 118.865C83.3899 118.865 85.9955 119.066 89.0727 119.192C89.0027 118.224 88.9057 117.533 88.9057 117.533L80.943 113.139Z" fill="#82493A"/>
<path d="M80.9626 112.679C80.9626 112.679 80.1289 121.476 89.8835 122.48C98.9312 123.411 98.725 123.953 101.95 123.272C102.37 123.184 102.606 122.733 102.433 122.34C101.726 120.74 100.133 116.85 99.6763 113.36L88.3008 112.679C88.3008 112.679 84.2065 112.441 80.9626 112.679Z" fill="#0D314C"/>
<path d="M80.8824 87.4304C80.7811 87.291 80.67 87.1483 80.5121 87.0796C80.3541 87.0106 80.1377 87.0451 80.0578 87.1976C79.9351 87.4315 80.2009 87.6871 80.2158 87.9507C80.2271 88.1486 80.0905 88.3287 79.9268 88.4402C79.763 88.5516 79.5709 88.6126 79.3927 88.6998C78.5386 89.1177 78.0848 90.2106 78.3912 91.1107C78.449 91.2803 78.5405 91.4528 78.7002 91.5334C78.9021 91.6354 79.1443 91.5617 79.3578 91.4866C79.9308 91.2847 80.5095 91.0806 81.0226 90.7549C81.4848 90.4615 82.2132 89.9074 81.9968 89.3072C81.7611 88.6533 81.2877 87.9888 80.8824 87.4304Z" fill="#A05E47"/>
<path d="M98.3039 109.813C98.3387 109.813 98.3732 109.812 98.4081 109.81C100.163 109.724 101.491 109.171 102.353 108.163C103.129 107.258 103.324 106.173 103.249 105.459C103.241 105.384 103.229 105.31 103.213 105.236C102.436 101.636 99.5213 97.0058 99.3972 96.8108C98.7777 95.8311 97.4804 95.5389 96.4996 96.1601C95.52 96.7803 95.2281 98.078 95.8479 99.058C96.5189 100.12 98.2665 103.171 98.9487 105.505C98.7886 105.551 98.5453 105.597 98.2037 105.614C97.045 105.671 96.1514 106.656 96.2077 107.815C96.2625 108.939 97.191 109.813 98.3039 109.813Z" fill="#E54C64"/>
<path d="M98.2045 105.614C97.0459 105.671 96.1523 106.656 96.2086 107.815C96.2634 108.938 97.1918 109.813 98.3047 109.813C98.3396 109.813 98.3741 109.812 98.4089 109.811C99.7401 109.746 100.824 109.41 101.647 108.813C99.7437 105.771 99.2695 99.8718 99.2695 99.8718L96.8284 100.737C97.5898 102.124 98.5001 103.969 98.9492 105.505C98.7895 105.552 98.5462 105.598 98.2045 105.614Z" fill="#CC3754"/>
<path d="M85.4685 95.6314L91.7388 95.4397C92.8956 95.3906 93.8673 96.3155 93.9025 97.4752C93.9377 98.6346 93.0263 99.6033 91.867 99.6389L84.3007 99.8702C84.2789 99.8709 84.2579 99.8713 84.2361 99.8713C83.4667 99.8713 82.7565 99.4497 82.3887 98.7693L78.3579 91.3109C79.5612 90.528 82.0535 89.3135 82.0535 89.3135L85.4685 95.6314Z" fill="#E54C64"/>
<path d="M96.6701 91.6968L96.4784 95.3663L94.7075 96.8179L93.1172 95.7312L93.2323 93.5243L96.6701 91.6968Z" fill="#A05E47"/>
<path d="M93.8528 94.9034L92.907 94.854C91.4538 94.7781 90.3271 93.5276 90.403 92.0745L90.5922 88.4511C90.6681 86.9984 91.9186 85.8717 93.3717 85.9472L94.3176 85.9966C95.7707 86.0725 96.8974 87.323 96.8215 88.7761L96.6323 92.3994C96.5565 93.8522 95.3056 94.9792 93.8528 94.9034Z" fill="#A05E47"/>
<path d="M91.6771 87.6104C91.3311 87.6373 91.2156 88.1565 91.4433 88.4187C91.6709 88.6808 92.0671 88.7164 92.4091 88.6579C92.3125 88.8453 92.213 89.0599 92.2813 89.2592C92.3496 89.4589 92.6811 89.5424 92.762 89.3478C92.697 89.7774 92.6324 90.2073 92.5674 90.6368C92.5373 90.8376 92.5079 91.0497 92.5834 91.2381C92.6589 91.4266 92.8793 91.5732 93.0663 91.4937C93.4904 91.3144 93.0852 90.484 93.4922 90.2683C93.5641 90.2301 93.6484 90.2233 93.7297 90.2287C94.1774 90.2592 94.5528 90.7054 94.5056 91.1521C94.4584 91.5983 93.9984 91.9567 93.5539 91.8931C93.4142 92.0326 93.3956 92.2766 93.5126 92.4356C93.6295 92.5946 93.8677 92.6498 94.0427 92.558C93.9221 92.9047 94.1091 93.3288 94.4464 93.4733C94.7838 93.6178 95.2202 93.461 95.388 93.1349C95.7031 93.5038 96.2205 93.6876 96.698 93.6004C97.1755 93.5133 97.5945 93.1585 97.7593 92.7025C98.345 92.786 98.9765 92.6814 99.4427 92.3172C99.9089 91.9534 100.169 91.3038 99.9826 90.7425C100.531 90.5145 100.95 89.9978 101.059 89.4135C101.168 88.8293 100.964 88.1961 100.534 87.7858C101.421 86.6003 101.174 84.7227 100.009 83.8077C99.9347 82.7609 99.3127 81.6861 98.3058 81.3902C97.8741 81.2631 97.3131 81.3437 97.1221 81.7507C96.641 81.4326 96.0978 81.1571 95.5216 81.1701C94.9453 81.1832 94.3437 81.571 94.2638 82.1421C93.8764 81.8103 93.2805 81.7478 92.8325 81.9918C92.3844 82.2358 92.1139 82.7703 92.1822 83.2757C91.7396 83.1029 91.2004 83.2126 90.8609 83.5448C90.521 83.877 90.399 84.4133 90.5617 84.8596C90.5624 84.8617 90.1626 85.6166 90.1612 85.7964C90.1586 86.1351 90.31 86.4383 90.3874 86.76C90.5156 87.2931 90.9531 88.3918 91.6771 87.6104Z" fill="#171C27"/>
<path d="M96.3698 95.1884C96.3698 95.1884 99.9314 95.1884 99.6609 99.0194C99.3904 102.85 98.8944 105.128 99.3454 107.613C99.7963 110.098 99.6758 113.36 99.6758 113.36C99.6758 113.36 92.3125 115.771 88.3003 113.131C88.3003 113.131 88.8863 100.676 89.0218 98.7606C89.1568 96.8452 90.9574 95.1692 93.8005 95.1884C96.6436 95.2076 96.6436 95.2076 96.6436 95.2076" fill="#E54C64"/>
<path d="M93.5632 113.206C97.131 113.206 99.6869 111.927 99.7232 111.908C99.7577 111.891 99.7711 111.848 99.7537 111.814C99.7359 111.78 99.6927 111.766 99.6596 111.784C99.6077 111.81 94.4012 114.412 88.4751 112.128C88.4388 112.114 88.3985 112.132 88.3847 112.167C88.3705 112.204 88.3887 112.244 88.425 112.258C90.247 112.961 92.0022 113.206 93.5632 113.206Z" fill="#0D314C"/>
<path d="M99.6204 110.104C99.6215 110.104 99.6222 110.104 99.6236 110.104C99.6621 110.103 99.6923 110.07 99.6904 110.031C99.6356 108.793 99.4159 107.613 99.4138 107.601C99.0913 105.825 99.2522 104.19 99.4748 101.928C99.559 101.072 99.6545 100.103 99.7308 99.0248C99.7333 98.9863 99.7042 98.9529 99.6658 98.95C99.6345 98.9486 99.5939 98.9762 99.591 99.015C99.5151 100.091 99.4196 101.059 99.3357 101.914C99.1204 104.102 98.9501 105.83 99.2762 107.626C99.2787 107.638 99.4966 108.809 99.5507 110.037C99.5517 110.075 99.5826 110.104 99.6204 110.104Z" fill="#0D314C"/>
<path d="M99.3401 113.423C99.3786 113.423 99.4102 113.392 99.4102 113.353V112.375C99.4102 112.337 99.379 112.305 99.3401 112.305C99.3016 112.305 99.27 112.336 99.27 112.375V113.353C99.27 113.392 99.3016 113.423 99.3401 113.423Z" fill="#0D314C"/>
<path d="M98.8777 113.369C98.9162 113.369 98.9478 113.337 98.9478 113.299V112.606C98.9478 112.568 98.9165 112.536 98.8777 112.536C98.8392 112.536 98.8076 112.567 98.8076 112.606V113.299C98.8076 113.337 98.8388 113.369 98.8777 113.369Z" fill="#0D314C"/>
<path d="M98.3811 113.617C98.4196 113.617 98.4512 113.586 98.4512 113.547V112.748C98.4512 112.709 98.42 112.678 98.3811 112.678C98.3426 112.678 98.311 112.709 98.311 112.748V113.547C98.311 113.586 98.3426 113.617 98.3811 113.617Z" fill="#0D314C"/>
<path d="M97.7942 113.723C97.8327 113.723 97.8643 113.692 97.8643 113.653V113.013C97.8643 112.975 97.833 112.943 97.7942 112.943C97.7557 112.943 97.7241 112.975 97.7241 113.013V113.653C97.7241 113.692 97.7557 113.723 97.7942 113.723Z" fill="#0D314C"/>
<path d="M97.2634 113.849C97.3019 113.849 97.3335 113.818 97.3335 113.779V113.067C97.3335 113.029 97.3023 112.997 97.2634 112.997C97.2249 112.997 97.1934 113.028 97.1934 113.067V113.779C97.1937 113.818 97.2249 113.849 97.2634 113.849Z" fill="#0D314C"/>
<path d="M96.7473 113.977C96.7858 113.977 96.8174 113.946 96.8174 113.907V113.192C96.8174 113.154 96.7862 113.122 96.7473 113.122C96.7088 113.122 96.6772 113.153 96.6772 113.192V113.907C96.6776 113.946 96.7088 113.977 96.7473 113.977Z" fill="#0D314C"/>
<path d="M96.1458 113.973C96.1842 113.973 96.2158 113.942 96.2158 113.903V113.226C96.2158 113.188 96.1846 113.156 96.1458 113.156C96.1073 113.156 96.0757 113.187 96.0757 113.226V113.903C96.0757 113.942 96.1073 113.973 96.1458 113.973Z" fill="#0D314C"/>
<path d="M95.6296 114.007C95.6681 114.007 95.6997 113.976 95.6997 113.937V113.351C95.6997 113.313 95.6685 113.281 95.6296 113.281C95.5912 113.281 95.5596 113.312 95.5596 113.351V113.937C95.5596 113.976 95.5912 114.007 95.6296 114.007Z" fill="#0D314C"/>
<path d="M95.1702 114.189C95.2087 114.189 95.2402 114.158 95.2402 114.119V113.422C95.2402 113.383 95.209 113.352 95.1702 113.352C95.1317 113.352 95.1001 113.383 95.1001 113.422V114.119C95.1001 114.158 95.1317 114.189 95.1702 114.189Z" fill="#0D314C"/>
<path d="M94.5486 114.061C94.5871 114.061 94.6187 114.03 94.6187 113.991V113.547C94.6187 113.508 94.5875 113.477 94.5486 113.477C94.5101 113.477 94.4785 113.508 94.4785 113.547V113.991C94.4785 114.03 94.5101 114.061 94.5486 114.061Z" fill="#0D314C"/>
<path d="M94.1233 114.203C94.1618 114.203 94.1934 114.172 94.1934 114.133V113.582C94.1934 113.544 94.1622 113.512 94.1233 113.512C94.0848 113.512 94.0532 113.543 94.0532 113.582V114.133C94.0532 114.172 94.0845 114.203 94.1233 114.203Z" fill="#0D314C"/>
<path d="M93.7146 114.26C93.7531 114.26 93.7847 114.229 93.7847 114.19V113.494C93.7847 113.456 93.7531 113.424 93.7146 113.424C93.6761 113.424 93.6445 113.456 93.6445 113.494V114.19C93.6449 114.228 93.6761 114.26 93.7146 114.26Z" fill="#0D314C"/>
<path d="M93.2693 114.281C93.3078 114.281 93.3394 114.249 93.3394 114.211V113.493C93.3394 113.454 93.3082 113.423 93.2693 113.423C93.2308 113.423 93.1992 113.454 93.1992 113.493V114.211C93.1992 114.249 93.2305 114.281 93.2693 114.281Z" fill="#0D314C"/>
<path d="M92.7898 114.133C92.8283 114.133 92.8599 114.102 92.8599 114.063V113.493C92.8599 113.454 92.8287 113.423 92.7898 113.423C92.7513 113.423 92.7197 113.454 92.7197 113.493V114.063C92.7201 114.102 92.7513 114.133 92.7898 114.133Z" fill="#0D314C"/>
<path d="M92.3303 114.06C92.3688 114.06 92.4004 114.029 92.4004 113.99V113.493C92.4004 113.454 92.3692 113.423 92.3303 113.423C92.2918 113.423 92.2603 113.454 92.2603 113.493V113.99C92.2606 114.029 92.2918 114.06 92.3303 114.06Z" fill="#0D314C"/>
<path d="M91.7797 114.19C91.8185 114.19 91.8498 114.159 91.8498 114.12V113.44C91.8498 113.402 91.8185 113.37 91.7797 113.37C91.7412 113.37 91.71 113.401 91.71 113.44V114.12C91.71 114.159 91.7412 114.19 91.7797 114.19Z" fill="#0D314C"/>
<path d="M91.2669 114.07C91.3053 114.07 91.3369 114.039 91.3369 114V113.262C91.3369 113.223 91.3057 113.192 91.2669 113.192C91.2284 113.192 91.1968 113.223 91.1968 113.262V114C91.1968 114.039 91.228 114.07 91.2669 114.07Z" fill="#0D314C"/>
<path d="M90.8753 113.951C90.9137 113.951 90.9453 113.92 90.9453 113.881V113.209C90.9453 113.171 90.9141 113.139 90.8753 113.139C90.8368 113.139 90.8052 113.17 90.8052 113.209V113.881C90.8052 113.92 90.8364 113.951 90.8753 113.951Z" fill="#0D314C"/>
<path d="M90.3787 113.885C90.4172 113.885 90.4487 113.854 90.4487 113.815V113.086C90.4487 113.047 90.4175 113.016 90.3787 113.016C90.3402 113.016 90.3086 113.047 90.3086 113.086V113.815C90.309 113.854 90.3402 113.885 90.3787 113.885Z" fill="#0D314C"/>
<path d="M89.9534 113.779C89.9919 113.779 90.0235 113.747 90.0235 113.709V112.997C90.0235 112.958 89.9922 112.927 89.9534 112.927C89.9149 112.927 89.8833 112.958 89.8833 112.997V113.709C89.8837 113.747 89.9149 113.779 89.9534 113.779Z" fill="#0D314C"/>
<path d="M89.4568 113.652C89.4953 113.652 89.5269 113.621 89.5269 113.582V112.942C89.5269 112.904 89.4956 112.872 89.4568 112.872C89.4183 112.872 89.3867 112.904 89.3867 112.942V113.582C89.3867 113.621 89.4183 113.652 89.4568 113.652Z" fill="#0D314C"/>
<path d="M88.9773 113.386C89.0158 113.386 89.0474 113.355 89.0474 113.316V112.659C89.0474 112.62 89.0162 112.589 88.9773 112.589C88.9385 112.589 88.9072 112.62 88.9072 112.659V113.316C88.9072 113.355 88.9385 113.386 88.9773 113.386Z" fill="#0D314C"/>
<path d="M88.6228 113.263C88.6613 113.263 88.6929 113.232 88.6929 113.193V112.5C88.6929 112.462 88.6617 112.43 88.6228 112.43C88.5843 112.43 88.5527 112.462 88.5527 112.5V113.193C88.5531 113.232 88.5843 113.263 88.6228 113.263Z" fill="#0D314C"/>
<path d="M99.0307 117.648C98.4196 118.199 97.6219 118.485 96.8453 118.756C94.8809 119.441 92.8864 120.116 90.8135 120.291" stroke="#074368" stroke-width="0.0974223" stroke-miterlimit="10" stroke-linecap="round" stroke-linejoin="round"/>
</svg>
