<svg width="46" height="65" viewBox="0 0 46 65" fill="none" xmlns="http://www.w3.org/2000/svg">
<path d="M1.12 50.2H2.31V60H1.12V50.2ZM1.778 51.32V50.2H3.78C4.41467 50.2 4.97933 50.3213 5.474 50.564C5.978 50.7973 6.37467 51.1333 6.664 51.572C6.96267 52.0107 7.112 52.5333 7.112 53.14C7.112 53.7373 6.96267 54.26 6.664 54.708C6.37467 55.1467 5.978 55.4873 5.474 55.73C4.97933 55.9633 4.41467 56.08 3.78 56.08H1.778V54.96H3.78C4.41467 54.96 4.928 54.806 5.32 54.498C5.72133 54.19 5.922 53.7373 5.922 53.14C5.922 52.5333 5.72133 52.0807 5.32 51.782C4.928 51.474 4.41467 51.32 3.78 51.32H1.778ZM9.44792 55.24V54.12H16.1679V55.24H9.44792ZM15.3699 50.2H16.5599V60H15.3699V50.2ZM8.78992 50.2H9.97992V60H8.78992V50.2ZM19.4977 55.1C19.4977 55.8373 19.6564 56.4953 19.9737 57.074C20.3004 57.6527 20.7437 58.11 21.3037 58.446C21.8637 58.782 22.4984 58.95 23.2077 58.95C23.9264 58.95 24.5611 58.782 25.1117 58.446C25.6717 58.11 26.1104 57.6527 26.4277 57.074C26.7544 56.4953 26.9177 55.8373 26.9177 55.1C26.9177 54.3627 26.7544 53.7047 26.4277 53.126C26.1104 52.5473 25.6717 52.09 25.1117 51.754C24.5611 51.418 23.9264 51.25 23.2077 51.25C22.4984 51.25 21.8637 51.418 21.3037 51.754C20.7437 52.09 20.3004 52.5473 19.9737 53.126C19.6564 53.7047 19.4977 54.3627 19.4977 55.1ZM18.2377 55.1C18.2377 54.3813 18.3591 53.7187 18.6017 53.112C18.8537 52.496 19.2037 51.964 19.6517 51.516C20.0997 51.0587 20.6271 50.704 21.2337 50.452C21.8404 50.1907 22.4984 50.06 23.2077 50.06C23.9264 50.06 24.5844 50.1907 25.1817 50.452C25.7884 50.704 26.3157 51.0587 26.7637 51.516C27.2117 51.964 27.5571 52.496 27.7997 53.112C28.0517 53.7187 28.1777 54.3813 28.1777 55.1C28.1777 55.8093 28.0517 56.472 27.7997 57.088C27.5571 57.704 27.2117 58.2407 26.7637 58.698C26.3157 59.146 25.7884 59.5007 25.1817 59.762C24.5844 60.014 23.9264 60.14 23.2077 60.14C22.4984 60.14 21.8404 60.014 21.2337 59.762C20.6271 59.5007 20.0997 59.146 19.6517 58.698C19.2037 58.2407 18.8537 57.704 18.6017 57.088C18.3591 56.472 18.2377 55.8093 18.2377 55.1ZM28.4545 51.32V50.2H34.6845V51.32H32.1645V60H30.9745V51.32H28.4545ZM35.945 55.1C35.945 55.8373 36.1037 56.4953 36.421 57.074C36.7477 57.6527 37.191 58.11 37.751 58.446C38.311 58.782 38.9457 58.95 39.655 58.95C40.3737 58.95 41.0083 58.782 41.559 58.446C42.119 58.11 42.5577 57.6527 42.875 57.074C43.2017 56.4953 43.365 55.8373 43.365 55.1C43.365 54.3627 43.2017 53.7047 42.875 53.126C42.5577 52.5473 42.119 52.09 41.559 51.754C41.0083 51.418 40.3737 51.25 39.655 51.25C38.9457 51.25 38.311 51.418 37.751 51.754C37.191 52.09 36.7477 52.5473 36.421 53.126C36.1037 53.7047 35.945 54.3627 35.945 55.1ZM34.685 55.1C34.685 54.3813 34.8063 53.7187 35.049 53.112C35.301 52.496 35.651 51.964 36.099 51.516C36.547 51.0587 37.0743 50.704 37.681 50.452C38.2877 50.1907 38.9457 50.06 39.655 50.06C40.3737 50.06 41.0317 50.1907 41.629 50.452C42.2357 50.704 42.763 51.0587 43.211 51.516C43.659 51.964 44.0043 52.496 44.247 53.112C44.499 53.7187 44.625 54.3813 44.625 55.1C44.625 55.8093 44.499 56.472 44.247 57.088C44.0043 57.704 43.659 58.2407 43.211 58.698C42.763 59.146 42.2357 59.5007 41.629 59.762C41.0317 60.014 40.3737 60.14 39.655 60.14C38.9457 60.14 38.2877 60.014 37.681 59.762C37.0743 59.5007 36.547 59.146 36.099 58.698C35.651 58.2407 35.301 57.704 35.049 57.088C34.8063 56.472 34.685 55.8093 34.685 55.1Z" fill="black"/>
<rect x="5" width="36" height="36" rx="8" fill="#190038"/>
<path fill-rule="evenodd" clip-rule="evenodd" d="M16.2842 9.12317C16.2105 9.16071 16.1138 9.24106 16.0693 9.30172C15.9886 9.41172 15.9884 9.425 15.9781 14.3603C15.9708 17.8561 15.9802 19.3388 16.0102 19.4115C16.0336 19.468 16.1053 19.5647 16.1696 19.6263L16.2865 19.7383H22.9996H29.7126L29.8171 19.6407C30.0448 19.428 30.0314 19.7534 30.0313 14.418C30.0313 9.8168 30.027 9.49543 29.963 9.37C29.9254 9.29633 29.8451 9.19965 29.7844 9.15516C29.6755 9.07524 29.6379 9.07415 26.733 9.06379C23.8989 9.05368 23.7885 9.05598 23.7007 9.12711C23.5744 9.22938 23.5739 9.46563 23.6998 9.56758C23.7861 9.6375 23.9132 9.64067 26.6178 9.64067H29.4455V11.8088V13.977L25.9636 13.967L22.4817 13.9571L22.4278 13.7422C22.3323 13.3618 22.1494 13.0461 21.8519 12.7478C21.4024 12.2972 20.93 12.1016 20.2914 12.1016C19.2936 12.1016 18.3825 12.8219 18.1841 13.7677L18.1403 13.9766H17.3476H16.5548V11.8086V9.64067H19.579C21.2423 9.64067 22.6329 9.62926 22.6693 9.61528C22.8432 9.54856 22.8549 9.18333 22.6861 9.09297C22.6412 9.06895 21.4628 9.05477 19.5164 9.05481C16.6439 9.05485 16.4084 9.05985 16.2842 9.12317ZM20.1095 10.461C20.0424 10.5281 20.0314 10.5912 20.0314 10.9087C20.0314 11.2386 20.0406 11.2868 20.1169 11.3579C20.2249 11.4585 20.3994 11.4602 20.498 11.3616C20.6575 11.202 20.658 10.581 20.4987 10.452C20.3854 10.3602 20.2062 10.3643 20.1095 10.461ZM18.0392 11.0079C17.9918 11.0552 17.9611 11.1381 17.9611 11.2184C17.9611 11.3291 17.9998 11.3882 18.1978 11.5797C18.3279 11.7056 18.4688 11.8213 18.5107 11.8368C18.6108 11.8739 18.7661 11.8125 18.8181 11.7154C18.9104 11.543 18.8684 11.4334 18.6121 11.1771C18.3378 10.9028 18.1884 10.8587 18.0392 11.0079ZM22 11.1833C21.7456 11.4416 21.7023 11.5486 21.7877 11.7082C21.8479 11.8206 22.0373 11.8831 22.147 11.8269C22.2794 11.759 22.5671 11.4754 22.6353 11.3456C22.7403 11.1457 22.5943 10.9297 22.3542 10.9297C22.2776 10.9297 22.1836 10.997 22 11.1833ZM19.7449 12.7831C19.3042 12.9643 19.0325 13.2183 18.8424 13.6266C18.6642 14.0094 18.5272 13.9766 20.3048 13.9766C22.0902 13.9766 21.9491 14.0129 21.7551 13.6028C21.4741 13.0087 20.9574 12.6865 20.2889 12.6885C20.0462 12.6892 19.9199 12.7111 19.7449 12.7831ZM14.0744 13.8934C14.0099 13.9334 13.7419 14.1866 13.4787 14.4561C12.8481 15.1018 12.8471 15.039 13.4982 15.7028C14.1343 16.3513 14.241 16.4112 14.4277 16.2245C14.6125 16.0397 14.5695 15.933 14.1269 15.4781L13.7302 15.0704L14.1269 14.6627C14.5695 14.2077 14.6125 14.101 14.4277 13.9163C14.313 13.8015 14.2309 13.7962 14.0744 13.8934ZM31.5726 13.9163C31.3878 14.101 31.4308 14.2077 31.8734 14.6627L32.2701 15.0704L31.8734 15.4781C31.4308 15.933 31.3878 16.0397 31.5726 16.2245C31.7587 16.4106 31.8636 16.3519 32.5021 15.705C32.9351 15.2663 33.0002 15.1837 33.0002 15.073C33.0002 14.9625 32.9344 14.8787 32.5021 14.4379C31.8661 13.7894 31.7593 13.7295 31.5726 13.9163ZM16.5548 16.1836V17.8047H17.827C18.6489 17.8047 19.1264 17.8194 19.1765 17.8462C19.3638 17.9465 19.3462 18.2563 19.148 18.3465C19.0825 18.3764 18.6475 18.3907 17.803 18.3907H16.5548V18.7813V19.1719H23.0002H29.4455V17.6281V16.0843L25.9522 16.0949C22.4734 16.1055 22.4585 16.1059 22.3487 16.1875C22.1932 16.3031 22.1804 16.4797 22.3197 16.5893C22.4091 16.6597 22.4776 16.672 22.7808 16.6722C23.1965 16.6724 23.348 16.7078 23.5903 16.8615C24.111 17.1917 24.0026 17.9725 23.3908 18.2983C23.2657 18.3649 23.1308 18.3721 21.8115 18.3827C20.2589 18.3952 20.1892 18.3877 20.1111 18.1992C20.0629 18.0829 20.1038 17.9163 20.195 17.8573C20.2232 17.8391 20.9026 17.8155 21.7048 17.8047L23.1633 17.7852L23.2575 17.6756C23.373 17.5413 23.3768 17.4489 23.2709 17.3531C23.2056 17.294 23.102 17.2752 22.7338 17.2554C22.1036 17.2217 21.8768 17.1076 21.7101 16.7404C21.5139 16.3082 21.7294 15.8015 22.1994 15.5899C22.3455 15.5241 22.584 15.5189 25.9005 15.5086L29.4455 15.4977V15.0301V14.5625H23.0002H16.5548V16.1836ZM13.9029 21.6093C13.7029 21.7201 13.7061 21.677 13.7046 24.2422C13.7032 26.8517 13.7009 26.8237 13.9225 26.908C13.9813 26.9303 14.9935 26.9454 16.438 26.9454H18.8552L18.9648 26.8511L19.0744 26.7568L19.085 24.3222C19.0928 22.5387 19.0835 21.8583 19.0502 21.7779C18.956 21.5505 19.005 21.5546 16.3908 21.5561C14.4782 21.5572 13.9775 21.5679 13.9029 21.6093ZM20.475 21.593C20.2593 21.6812 20.2658 21.5991 20.2658 24.2617V26.717L20.38 26.8312L20.4941 26.9454H22.9355H25.377L25.4971 26.8442L25.6173 26.7431V24.2683V21.7935L25.5231 21.6839L25.4288 21.5743L22.9938 21.5665C21.6545 21.5623 20.5211 21.5742 20.475 21.593ZM27.0902 21.6171C27.0301 21.6497 26.9642 21.7204 26.9437 21.7743C26.9215 21.8327 26.9064 22.8523 26.9064 24.2947V26.717L27.0206 26.8312L27.1348 26.9454H29.5571C31.005 26.9454 32.019 26.9303 32.0778 26.908C32.2991 26.8238 32.297 26.848 32.297 24.2773C32.297 22.6513 32.2836 21.8793 32.2537 21.7938C32.1684 21.5489 32.2319 21.5546 29.5939 21.5563C27.5303 21.5577 27.1843 21.5661 27.0902 21.6171ZM14.2892 23.2202V24.2998L14.4801 24.1213C14.6816 23.9328 14.8655 23.868 15.0603 23.9169C15.1238 23.9328 15.3682 24.1422 15.6574 24.4283L16.147 24.9128L16.7118 24.347C17.5102 23.5472 17.5991 23.5311 18.1649 24.0847L18.508 24.4204V23.2806V22.1407H16.3986H14.2892V23.2202ZM20.8517 23.2202V24.2998L21.0437 24.1203C21.2581 23.9197 21.3702 23.8775 21.5844 23.9166C21.705 23.9386 21.8159 24.0296 22.2164 24.4345L22.7022 24.9256L23.2516 24.3548C23.5537 24.0409 23.8504 23.7659 23.9109 23.7436C24.1868 23.6422 24.4284 23.7567 24.7922 24.1614L25.0299 24.4258L25.0307 23.2832L25.0314 22.1407H22.9416H20.8517V23.2202ZM27.4923 23.2202V24.2998L27.6843 24.1203C27.8989 23.9195 28.0112 23.8773 28.225 23.9171C28.344 23.9393 28.4621 24.0343 28.8593 24.4279L29.3475 24.9113L29.9336 24.3298C30.2908 23.9754 30.5617 23.7379 30.6274 23.7215C30.8603 23.6633 30.9996 23.7316 31.3635 24.0823L31.7111 24.4174V23.2791V22.1407H29.6017H27.4923V23.2202ZM17.0704 24.8102C16.8083 25.0753 16.5939 25.309 16.5939 25.3296C16.5939 25.3501 16.8298 25.5902 17.1182 25.8632L17.6424 26.3594H18.0752H18.508V25.8034V25.2473L18.0496 24.7877C17.7975 24.535 17.5813 24.3282 17.5691 24.3282C17.5569 24.3282 17.3325 24.5451 17.0704 24.8102ZM23.5949 24.8347L23.1154 25.332L23.6445 25.8457L24.1736 26.3594H24.6025H25.0314V25.8034V25.2473L24.573 24.7877C24.3209 24.535 24.1056 24.3302 24.0945 24.3328C24.0834 24.3353 23.8586 24.5612 23.5949 24.8347ZM30.2528 24.8294L29.7527 25.3307L30.2924 25.8438L30.8322 26.3569L31.2716 26.3582L31.7111 26.3594L31.7105 25.8223L31.71 25.2852L31.2579 24.8067C31.0093 24.5435 30.794 24.3282 30.7794 24.3282C30.7648 24.3282 30.5279 24.5537 30.2528 24.8294ZM14.5905 24.8527L14.2892 25.1818V25.7706V26.3594H15.5313H16.7734L15.8525 25.4415C15.3461 24.9366 14.9227 24.5235 14.9117 24.5235C14.9007 24.5235 14.7562 24.6716 14.5905 24.8527ZM21.1536 24.8271L20.8517 25.1307V25.745V26.3594H22.0839H23.3162L22.391 25.4415C21.8821 24.9366 21.4634 24.5235 21.4605 24.5235C21.4577 24.5235 21.3195 24.6601 21.1536 24.8271ZM27.7942 24.8271L27.4923 25.1307V25.745V26.3594H28.7306H29.9688L29.0529 25.4416C28.5491 24.9368 28.1277 24.5238 28.1164 24.5236C28.1052 24.5236 27.9602 24.6601 27.7942 24.8271Z" fill="white"/>
</svg>
