<svg width="38" height="65" viewBox="0 0 38 65" fill="none" xmlns="http://www.w3.org/2000/svg">
<path d="M1.05 50.2H2.24V56.78C2.24 57.452 2.422 57.9933 2.786 58.404C3.15 58.8147 3.682 59.02 4.382 59.02C5.082 59.02 5.614 58.8147 5.978 58.404C6.342 57.9933 6.524 57.452 6.524 56.78V50.2H7.714V56.78C7.714 57.2653 7.63467 57.7133 7.476 58.124C7.32667 58.5347 7.10267 58.8893 6.804 59.188C6.51467 59.4867 6.16467 59.72 5.754 59.888C5.34333 60.056 4.886 60.14 4.382 60.14C3.878 60.14 3.42067 60.056 3.01 59.888C2.59933 59.72 2.24467 59.4867 1.946 59.188C1.65667 58.8893 1.43267 58.5347 1.274 58.124C1.12467 57.7133 1.05 57.2653 1.05 56.78V50.2ZM9.88367 50.2H11.0737V60H9.88367V50.2ZM18.0753 50.2H19.1953L13.5253 62.1H12.4053L18.0753 50.2ZM20.4504 50.2H21.6404V56.78C21.6404 57.452 21.8224 57.9933 22.1864 58.404C22.5504 58.8147 23.0824 59.02 23.7824 59.02C24.4824 59.02 25.0144 58.8147 25.3784 58.404C25.7424 57.9933 25.9244 57.452 25.9244 56.78V50.2H27.1144V56.78C27.1144 57.2653 27.0351 57.7133 26.8764 58.124C26.7271 58.5347 26.5031 58.8893 26.2044 59.188C25.9151 59.4867 25.5651 59.72 25.1544 59.888C24.7437 60.056 24.2864 60.14 23.7824 60.14C23.2784 60.14 22.8211 60.056 22.4104 59.888C21.9997 59.72 21.6451 59.4867 21.3464 59.188C21.0571 58.8893 20.8331 58.5347 20.6744 58.124C20.5251 57.7133 20.4504 57.2653 20.4504 56.78V50.2ZM34.1841 50.2H35.5841L32.6861 54.862L35.7941 60H34.3941L32.0841 55.898L29.7041 60H28.3041L31.4961 54.862L28.6541 50.2H30.0541L32.0981 53.826L34.1841 50.2Z" fill="black"/>
<rect x="2" width="36" height="36" rx="8" fill="#190038"/>
<g clip-path="url(#clip0_14355_237556)">
<path fill-rule="evenodd" clip-rule="evenodd" d="M10.8956 8.58603C10.6423 8.62931 10.4216 8.75255 10.2605 8.94067C9.98093 9.26732 10.0003 8.74282 10.0003 15.9883C10.0003 23.2415 9.98038 22.7085 10.2639 23.0398C10.3421 23.1311 10.495 23.2473 10.6036 23.2979L10.8011 23.3898L13.995 23.3902L17.189 23.3906L17.1786 24.5086L17.1683 25.6265L16.6098 25.8909C16.3026 26.0363 16.017 26.1863 15.975 26.2243C15.907 26.2859 15.8987 26.3469 15.8987 26.789C15.8987 27.2434 15.9056 27.2909 15.981 27.3592C16.0607 27.4313 16.1836 27.4336 20.0078 27.4336H23.9525L24.0272 27.3413C24.0916 27.2618 24.1019 27.1836 24.1019 26.7712C24.1019 26.3618 24.0919 26.2843 24.032 26.2301C23.9936 26.1953 23.7035 26.042 23.3875 25.8893L22.8128 25.6118V24.5012V23.3906H26.0083H29.2037L29.4066 23.2895C29.6392 23.1736 29.8603 22.9355 29.9257 22.7306C29.9505 22.6532 29.9861 22.5731 30.005 22.5527C30.0494 22.5047 30.0505 9.35567 30.0061 9.3831C29.9878 9.39442 29.9527 9.33646 29.9281 9.25435C29.8635 9.0386 29.6092 8.76915 29.367 8.6597L29.1605 8.56638L20.1175 8.56091C15.1439 8.5579 10.994 8.56923 10.8956 8.58603ZM10.8214 9.1231C10.7466 9.16064 10.6455 9.2511 10.5968 9.32411L10.5081 9.45685V14.9589V20.4609H20.0003H29.4925V14.9589V9.45685L29.4038 9.32411C29.3551 9.2511 29.254 9.16064 29.1792 9.1231C29.051 9.05864 28.5317 9.05478 20.0003 9.05478C11.4689 9.05478 10.9496 9.05864 10.8214 9.1231ZM10.0194 15.9883C10.0194 19.6191 10.024 21.0987 10.0296 19.2762C10.0352 17.4537 10.0352 14.483 10.0296 12.6746C10.024 10.8663 10.0194 12.3574 10.0194 15.9883ZM12.6013 10.1057C12.502 10.2154 12.5325 10.4263 12.6566 10.4887C12.7999 10.5609 27.2007 10.5609 27.3441 10.4887C27.4682 10.4263 27.4986 10.2154 27.3993 10.1057C27.3335 10.0329 27.1624 10.0312 20.0003 10.0312C12.8382 10.0312 12.6671 10.0329 12.6013 10.1057ZM22.1353 11.5649C22.0575 11.6218 19.7659 17.6714 19.7659 17.8199C19.7659 18.0179 20.0339 18.1188 20.1667 17.9707C20.2481 17.88 22.5003 11.8695 22.5003 11.7431C22.5003 11.5586 22.2866 11.4543 22.1353 11.5649ZM12.8608 12.7746C12.812 12.7981 12.7628 12.8542 12.7515 12.8993C12.7402 12.9443 12.7362 13.6138 12.7426 14.3871L12.7542 15.7929L12.8624 16.0133C13.0682 16.4322 13.5126 16.732 13.9906 16.774C14.5696 16.825 15.159 16.4488 15.3793 15.8877C15.4382 15.7377 15.4489 15.5323 15.4604 14.3384L15.4736 12.9619L15.3755 12.8638C15.2562 12.7445 15.198 12.7413 15.0642 12.8466L14.9612 12.9275L14.961 14.2626C14.9609 15.1074 14.9451 15.655 14.9181 15.7539C14.8548 15.9853 14.5587 16.2575 14.3039 16.3187C14.194 16.345 14.0374 16.3553 13.9558 16.3415C13.6192 16.2847 13.3173 16.0022 13.2408 15.6729C13.2213 15.5885 13.2046 14.9306 13.2038 14.2109C13.2029 13.4912 13.1893 12.883 13.1735 12.8593C13.147 12.8196 12.9901 12.7231 12.9619 12.7292C12.9551 12.7306 12.9096 12.7511 12.8608 12.7746ZM16.5232 12.7972C16.4751 12.8362 16.4358 12.9117 16.4358 12.9652C16.4358 13.0187 16.6219 13.4452 16.8494 13.913L17.2628 14.7635L16.8264 15.6374C16.4383 16.4145 16.3942 16.5234 16.4283 16.6202C16.4793 16.7653 16.6416 16.8236 16.7649 16.7411C16.8168 16.7063 17.005 16.391 17.2039 16.0056L17.552 15.3309L17.8819 15.9916C18.0633 16.355 18.239 16.6831 18.2723 16.7207C18.4086 16.8748 18.6722 16.7567 18.6722 16.5415C18.6722 16.4839 18.4855 16.0638 18.2574 15.6079L17.8426 14.779L18.2828 13.8959C18.7533 12.9521 18.7761 12.8645 18.5756 12.7732C18.3764 12.6824 18.3149 12.7518 17.9246 13.5081L17.5589 14.2168L17.2221 13.5236C16.8242 12.7047 16.7424 12.6197 16.5232 12.7972ZM23.2592 12.767C23.0816 12.8327 23.0811 12.8375 23.0938 14.3348L23.1058 15.7539L23.2101 15.9764C23.3429 16.2598 23.5933 16.5102 23.8891 16.6555C24.0912 16.7547 24.1646 16.7694 24.4534 16.7686C24.7283 16.7679 24.8233 16.7502 25.005 16.6657C25.313 16.5225 25.5253 16.3157 25.6737 16.0143L25.8011 15.7558L25.8127 14.3342C25.8232 13.0403 25.8183 12.9059 25.7578 12.8391C25.6904 12.7646 25.5269 12.7424 25.4422 12.7963C25.3297 12.8678 25.3128 13.0706 25.3128 14.3517C25.3128 15.5617 25.3073 15.6702 25.2383 15.8043C25.0799 16.1122 24.8047 16.2817 24.4651 16.2804C24.088 16.2789 23.7903 16.0896 23.6547 15.7649C23.6039 15.6432 23.5941 15.4027 23.5941 14.2795C23.5941 13.1638 23.5844 12.9255 23.5367 12.8573C23.4687 12.7602 23.367 12.7272 23.2592 12.767ZM26.8992 12.8254C26.8662 12.8584 26.829 12.9418 26.8164 13.011C26.8038 13.0801 26.7987 13.9249 26.8051 14.8882L26.8167 16.6397L26.9089 16.7144C27.0272 16.8102 27.1287 16.809 27.2269 16.7109C27.3028 16.635 27.305 16.5807 27.305 14.7638C27.305 13.0029 27.3008 12.8911 27.2335 12.8302C27.144 12.7492 26.9778 12.7468 26.8992 12.8254ZM12.6566 19.105C12.5325 19.1674 12.502 19.3783 12.6013 19.488C12.6671 19.5608 12.8382 19.5625 20.0003 19.5625C27.1624 19.5625 27.3335 19.5608 27.3993 19.488C27.4986 19.3783 27.4682 19.1674 27.3441 19.105C27.2666 19.066 25.7442 19.0558 20.0003 19.0558C14.2564 19.0558 12.734 19.066 12.6566 19.105ZM19.9417 21.1331C19.3307 21.3466 19.2171 22.1676 19.747 22.5401C19.9871 22.7088 20.2524 22.7262 20.5282 22.5913C20.8454 22.4361 20.9573 22.2523 20.9573 21.8867C20.9573 21.6493 20.9417 21.5839 20.8525 21.4492C20.6649 21.1656 20.2552 21.0234 19.9417 21.1331ZM20.0574 21.4042C19.648 21.5119 19.57 22.0766 19.9339 22.2984C20.3141 22.5302 20.7809 22.1707 20.6615 21.7381C20.5923 21.4873 20.3178 21.3356 20.0574 21.4042ZM17.6956 24.5039V25.6172H20.0003H22.305V24.5039V23.3906H20.0003H17.6956V24.5039Z" fill="white"/>
</g>
<defs>
<clipPath id="clip0_14355_237556">
<rect width="20" height="20" fill="white" transform="translate(10 8)"/>
</clipPath>
</defs>
</svg>
