<svg width="46" height="60" viewBox="0 0 46 60" fill="none" xmlns="http://www.w3.org/2000/svg">
<rect width="46" height="60" rx="12" transform="matrix(-1 0 0 1 46 0)" fill="#E6EFEF"/>
<path d="M33.5401 24.42C33.4213 23.9454 33.1794 23.5106 32.8387 23.1594C32.4981 22.8082 32.0708 22.5532 31.6001 22.42C29.8801 22 23.0001 22 23.0001 22C23.0001 22 16.1201 22 14.4001 22.46C13.9293 22.5932 13.5021 22.8482 13.1614 23.1994C12.8208 23.5506 12.5789 23.9854 12.4601 24.46C12.1453 26.2056 11.9913 27.9763 12.0001 29.75C11.9889 31.537 12.1429 33.3213 12.4601 35.08C12.591 35.5398 12.8384 35.9581 13.1782 36.2945C13.5181 36.6308 13.9389 36.8738 14.4001 37C16.1201 37.46 23.0001 37.46 23.0001 37.46C23.0001 37.46 29.8801 37.46 31.6001 37C32.0708 36.8668 32.4981 36.6118 32.8387 36.2606C33.1794 35.9094 33.4213 35.4746 33.5401 35C33.8524 33.2676 34.0064 31.5103 34.0001 29.75C34.0113 27.963 33.8573 26.1787 33.5401 24.42Z" stroke="black" stroke-width="1.5" stroke-linecap="round" stroke-linejoin="round"/>
<path d="M20.75 33.02L26.5 29.75L20.75 26.48V33.02Z" fill="black" stroke="black" stroke-width="1.5" stroke-linecap="round" stroke-linejoin="round"/>
</svg>
