<svg width="45" height="65" viewBox="0 0 45 65" fill="none" xmlns="http://www.w3.org/2000/svg">
<path d="M4.62 57.788L7.84 50.2H9.17L4.62 60.49L0.07 50.2H1.4L4.62 57.788ZM10.3622 50.2H11.5522V60H10.3622V50.2ZM14.1578 57.032C14.3818 57.424 14.6152 57.7693 14.8578 58.068C15.1098 58.3667 15.3898 58.6 15.6978 58.768C16.0058 58.936 16.3558 59.02 16.7478 59.02C17.2705 59.02 17.6905 58.8753 18.0078 58.586C18.3252 58.2967 18.4838 57.928 18.4838 57.48C18.4838 57.0413 18.3812 56.6913 18.1758 56.43C17.9705 56.1687 17.6998 55.9587 17.3638 55.8C17.0372 55.632 16.6872 55.4827 16.3138 55.352C16.0712 55.268 15.8005 55.1607 15.5018 55.03C15.2032 54.89 14.9185 54.7173 14.6478 54.512C14.3772 54.2973 14.1532 54.036 13.9758 53.728C13.8078 53.42 13.7238 53.042 13.7238 52.594C13.7238 52.1087 13.8452 51.6747 14.0878 51.292C14.3305 50.9093 14.6665 50.6107 15.0958 50.396C15.5252 50.172 16.0152 50.06 16.5658 50.06C17.0978 50.06 17.5598 50.1627 17.9518 50.368C18.3532 50.564 18.6938 50.8207 18.9738 51.138C19.2538 51.446 19.4732 51.7727 19.6318 52.118L18.6098 52.706C18.4885 52.4633 18.3345 52.2253 18.1478 51.992C17.9612 51.7587 17.7325 51.5673 17.4618 51.418C17.2005 51.2687 16.8785 51.194 16.4958 51.194C15.9638 51.194 15.5765 51.3247 15.3338 51.586C15.0912 51.838 14.9698 52.1227 14.9698 52.44C14.9698 52.7107 15.0398 52.9627 15.1798 53.196C15.3198 53.42 15.5532 53.6347 15.8798 53.84C16.2158 54.036 16.6685 54.232 17.2378 54.428C17.4992 54.5213 17.7745 54.6427 18.0638 54.792C18.3532 54.9413 18.6192 55.1327 18.8618 55.366C19.1138 55.59 19.3192 55.8653 19.4778 56.192C19.6365 56.5093 19.7158 56.892 19.7158 57.34C19.7158 57.7693 19.6318 58.1567 19.4638 58.502C19.3052 58.8473 19.0812 59.1413 18.7918 59.384C18.5118 59.6267 18.1898 59.8133 17.8258 59.944C17.4712 60.0747 17.0978 60.14 16.7058 60.14C16.1738 60.14 15.6792 60.028 15.2218 59.804C14.7738 59.5707 14.3772 59.2673 14.0318 58.894C13.6958 58.5113 13.4205 58.1053 13.2058 57.676L14.1578 57.032ZM21.3938 50.2H22.5838V56.78C22.5838 57.452 22.7658 57.9933 23.1298 58.404C23.4938 58.8147 24.0258 59.02 24.7258 59.02C25.4258 59.02 25.9578 58.8147 26.3218 58.404C26.6858 57.9933 26.8678 57.452 26.8678 56.78V50.2H28.0577V56.78C28.0577 57.2653 27.9784 57.7133 27.8198 58.124C27.6704 58.5347 27.4464 58.8893 27.1478 59.188C26.8584 59.4867 26.5084 59.72 26.0978 59.888C25.6871 60.056 25.2298 60.14 24.7258 60.14C24.2218 60.14 23.7644 60.056 23.3538 59.888C22.9431 59.72 22.5884 59.4867 22.2898 59.188C22.0004 58.8893 21.7764 58.5347 21.6178 58.124C21.4684 57.7133 21.3938 57.2653 21.3938 56.78V50.2ZM31.1654 57.06L31.5854 55.94H35.9254L36.3454 57.06H31.1654ZM33.7274 52.412L32.0754 56.304L31.9634 56.556L30.5074 60H29.1774L33.7274 49.71L38.2774 60H36.9474L35.5194 56.64L35.4074 56.36L33.7274 52.412ZM39.4696 50.2H40.6596V58.88H44.5096V60H39.4696V50.2Z" fill="black"/>
<rect x="5" width="36" height="36" rx="8" fill="#190038"/>
<g clip-path="url(#clip0_14355_237561)">
<path fill-rule="evenodd" clip-rule="evenodd" d="M27.8117 8.69336C27.7192 8.77227 26.1255 12.5741 26.1255 12.716C26.1255 12.9397 26.4528 13.0808 26.6258 12.9316C26.6707 12.8929 27.0299 12.081 27.4553 11.0566L28.2056 9.25L28.6206 9.24875C29.0553 9.24746 29.1199 9.2268 29.2083 9.06082C29.269 8.94695 29.2367 8.80785 29.1254 8.70422C29.048 8.63207 28.989 8.625 28.4662 8.625C27.9758 8.625 27.8802 8.635 27.8117 8.69336ZM29.9714 8.7209C29.9109 8.78133 29.8755 8.86141 29.8755 8.9375C29.8755 9.01359 29.9109 9.09367 29.9714 9.1541L30.0672 9.25H31.1255H32.1837L32.2796 9.1541C32.34 9.09367 32.3755 9.01359 32.3755 8.9375C32.3755 8.86141 32.34 8.78133 32.2796 8.7209L32.1837 8.625H31.1255H30.0672L29.9714 8.7209ZM23.4247 9.32465L23.3325 9.39934L23.3219 11.8693C23.31 14.6222 23.2958 14.472 23.5797 14.5892C23.8402 14.6967 24.3405 14.9576 24.5215 15.0804C25.3115 15.616 25.9675 16.4033 26.3356 17.2578C26.3958 17.3975 26.4884 17.5513 26.5414 17.5996L26.6376 17.6875H29.0981H31.5587L31.6604 17.5858L31.7621 17.4841L31.7377 16.9705C31.6352 14.8169 30.6728 12.7765 29.0942 11.3663C28.5322 10.8643 28.4209 10.814 28.2206 10.9716C28.1412 11.0341 28.1176 11.087 28.1176 11.2033C28.1176 11.3448 28.1389 11.3721 28.4626 11.6467C30.0146 12.9635 30.8997 14.6954 31.1056 16.8184L31.1293 17.0625L29.0278 17.0614L26.9262 17.0604L26.8098 16.7999C26.3571 15.7873 25.2131 14.6433 24.2006 14.1907L23.9401 14.0742L23.939 11.9715L23.938 9.86879L24.2016 9.89461C24.7401 9.94734 25.2594 10.0429 25.7087 10.172C25.9628 10.245 26.2053 10.3047 26.2475 10.3047C26.3623 10.3047 26.5161 10.131 26.5161 10.0013C26.5161 9.8275 26.3907 9.7323 25.9945 9.60539C25.3496 9.39879 24.4411 9.25223 23.7958 9.25066C23.5787 9.25016 23.4965 9.26656 23.4247 9.32465ZM29.9714 9.9709C29.9109 10.0313 29.8755 10.1114 29.8755 10.1875C29.8755 10.2636 29.9109 10.3437 29.9714 10.4041L30.0672 10.5H31.1255H32.1837L32.2796 10.4041C32.34 10.3437 32.3755 10.2636 32.3755 10.1875C32.3755 10.1114 32.34 10.0313 32.2796 9.9709L32.1837 9.875H31.1255H30.0672L29.9714 9.9709ZM20.9301 11.1688C19.3862 11.324 17.7722 11.9979 16.5973 12.9779C16.2057 13.3045 15.5362 14.0015 15.2584 14.3718C14.0549 15.9758 13.4731 18.0299 13.6649 19.9978C13.8113 21.5004 14.3666 22.9397 15.2584 24.1282C15.536 24.4983 16.2064 25.1963 16.594 25.5188C18.2121 26.8655 20.4383 27.5455 22.5373 27.3343C23.488 27.2386 24.4945 26.9505 25.3442 26.5308C25.9684 26.2225 26.0864 26.128 26.0864 25.9368C26.0864 25.803 26.0271 25.7354 25.0797 24.7879C24.3371 24.0453 24.049 23.7813 23.9816 23.7813C23.9313 23.7813 23.722 23.8443 23.5164 23.9212C22.8689 24.1638 22.5225 24.2243 21.77 24.2264C21.0352 24.2286 20.7031 24.1768 20.1098 23.9675C19.3751 23.7084 18.8019 23.3432 18.2311 22.7707C17.4949 22.0321 17.0624 21.2388 16.8442 20.2266C16.7442 19.7623 16.7442 18.7377 16.8442 18.2734C17.0624 17.2612 17.4949 16.4679 18.2311 15.7293C19.1309 14.8267 20.2074 14.3397 21.4742 14.2622C21.8303 14.2404 21.8958 14.2254 21.9735 14.1477L22.063 14.0582V12.6875V11.3168L21.9671 11.2209C21.8805 11.1343 21.8415 11.1255 21.5667 11.1302C21.3992 11.133 21.1128 11.1504 20.9301 11.1688ZM20.9301 11.7931C18.7297 12.0405 16.7356 13.2356 15.5333 15.0277C14.6932 16.28 14.2485 17.7405 14.2511 19.2387C14.2563 22.1552 15.913 24.7627 18.5669 26.0314C20.5409 26.9752 22.9615 26.9827 24.8955 26.051L25.269 25.8711L24.5684 25.1723L23.8678 24.4736L23.483 24.595C22.8176 24.805 22.5017 24.8525 21.77 24.8527C20.7858 24.8531 20.175 24.7127 19.309 24.2871C17.604 23.4491 16.3959 21.7594 16.1685 19.8945C15.8481 17.2669 17.4776 14.7275 20.0122 13.9045C20.3105 13.8076 20.7068 13.7268 21.311 13.6398L21.438 13.6214V12.6857V11.75L21.3305 11.7551C21.2715 11.7579 21.0913 11.775 20.9301 11.7931ZM21.3794 16.7718C21.3364 16.7817 21.2046 16.8093 21.0864 16.8332C20.1948 17.013 19.0436 17.8253 18.2308 18.8481C17.9317 19.2245 17.9317 19.2774 18.231 19.6481C19.4031 21.0994 20.8637 21.8821 22.0942 21.7183C22.9655 21.6023 23.7648 21.1668 24.616 20.3445C25.1668 19.8124 25.5005 19.3996 25.5005 19.2502C25.5005 19.043 24.7776 18.2244 24.1669 17.7399C23.6028 17.2923 23.0494 16.9964 22.4958 16.8461C22.279 16.7871 21.5285 16.7372 21.3794 16.7718ZM21.184 17.4517C21.0337 17.4916 20.8262 17.5607 20.7229 17.6054C20.1892 17.8363 19.4829 18.3741 18.9826 18.9304L18.6953 19.25L18.9826 19.5696C19.9885 20.6882 21.162 21.2559 22.1227 21.0886C22.8975 20.9537 23.7684 20.4012 24.5183 19.5689L24.8056 19.25L24.5183 18.9307C23.4252 17.7162 22.214 17.1789 21.184 17.4517ZM21.4551 18.0342C21.264 18.0838 20.9321 18.2794 20.8271 18.4042C20.774 18.4673 20.6839 18.6087 20.6268 18.7185C20.5387 18.888 20.523 18.9679 20.5223 19.25C20.5215 19.5541 20.5326 19.6028 20.6542 19.8282C20.802 20.1023 20.9246 20.2207 21.2189 20.3736C21.389 20.462 21.4673 20.4773 21.7505 20.4773C22.0336 20.4773 22.1119 20.462 22.282 20.3736C22.5764 20.2207 22.6989 20.1023 22.8467 19.8282C22.9683 19.6028 22.9794 19.5541 22.9786 19.25C22.9779 18.9679 22.9622 18.888 22.8741 18.7185C22.7219 18.4255 22.6026 18.3013 22.3384 18.1605C22.086 18.026 21.6994 17.9707 21.4551 18.0342ZM21.4946 18.68C21.1005 18.8516 21.0074 19.3755 21.3162 19.6843C21.755 20.1232 22.4742 19.7301 22.3587 19.1144C22.2896 18.7462 21.85 18.5252 21.4946 18.68ZM26.8528 19.027C26.775 19.1047 26.76 19.1701 26.7381 19.5287C26.6673 20.6854 26.2275 21.7416 25.4675 22.58C25.1977 22.8777 25.1557 22.9816 25.2405 23.1423C25.2728 23.2037 25.7102 23.6626 26.2123 24.1621C27.0871 25.0322 27.1317 25.0703 27.276 25.0703C27.4072 25.0703 27.4516 25.0439 27.6196 24.8652C28.8943 23.5098 29.6569 21.835 29.836 19.9978C29.9017 19.3244 29.8912 19.145 29.7796 19.0334L29.6837 18.9375H28.313H26.9422L26.8528 19.027ZM27.3569 19.748C27.302 20.1853 27.2106 20.6409 27.1176 20.9404C26.977 21.3938 26.5977 22.1436 26.3228 22.5117C26.1945 22.6836 26.0595 22.8652 26.0228 22.9152C25.9564 23.0059 25.9581 23.0082 26.6195 23.6696L27.2829 24.3329L27.5256 24.0395C28.2839 23.1227 28.813 22.0418 29.0694 20.8861C29.1532 20.5082 29.2505 19.8295 29.2505 19.6226C29.2505 19.5702 29.1312 19.5625 28.3153 19.5625H27.3803L27.3569 19.748Z" fill="white"/>
</g>
<defs>
<clipPath id="clip0_14355_237561">
<rect width="20" height="20" fill="white" transform="translate(13 8)"/>
</clipPath>
</defs>
</svg>
